<?xml version="1.0" encoding="iso-8859-1"?>
<!-- Generator: Adobe Illustrator 19.0.0, SVG Export Plug-In . SVG Version: 6.00 Build 0)  -->
<svg version="1.1" id="Capa_1" xmlns="http://www.w3.org/2000/svg" xmlns:xlink="http://www.w3.org/1999/xlink" x="0px" y="0px"
	 viewBox="0 0 512 512" style="enable-background:new 0 0 512 512;" xml:space="preserve">
<path style="fill:#D2E3F1;" d="M62.261,91.261C27.445,97.733,1,128.337,1,165v15h31.507c6.969,34.19,37.274,60,73.493,60h85.638V30
	H136C99.337,30,68.734,56.445,62.261,91.261z"/>
<path style="fill:#A5C6E3;" d="M449.739,91.261C443.266,56.445,412.663,30,376,30h-55.638v210H406c36.219,0,66.524-25.81,73.493-60
	H511v-15C511,128.337,484.555,97.733,449.739,91.261z"/>
<path style="fill:#FEECCC;" d="M135,361C60.561,361,0,421.561,0,496v16h136l30-75.5L136,361H135z"/>
<path style="fill:#FCD999;" d="M512,496c0-74.439-60.561-135-135-135h-1l-30,75.5l30,75.5h136V496z"/>
<polygon style="fill:#FBC566;" points="256,512 376,512 376,361 286,406.5 "/>
<polygon style="fill:#FCD999;" points="136,512 256,512 226,406.5 136,361 "/>
<polygon style="fill:#1D71B8;" points="256,361 226,436.5 256,512 376,361 "/>
<polygon style="fill:#4A8DC6;" points="256,361 136,361 256,512 "/>
<path style="fill:#FB7A5B;" d="M256,0l-50,165.5L256,331c74.439,0,135-60.561,135-135v-61C391,60.561,330.439,0,256,0z"/>
<path style="fill:#FA9647;" d="M121,135v61c0,74.439,60.561,135,135,135V0C181.561,0,121,60.561,121,135z"/>
<polygon style="fill:#0E3759;" points="301,150.5 256,150.5 246,165.5 256,180.5 301,180.5 "/>
<rect x="211" y="150.5" style="fill:#1D71B8;" width="45" height="30"/>
<path style="fill:#D2E3F1;" d="M331,105.5c-33.084,0-60,26.916-60,60s26.916,60,60,60s60-26.916,60-60S364.084,105.5,331,105.5z"/>
<path style="fill:#FFFFFF;" d="M181,105.5c-33.084,0-60,26.916-60,60s26.916,60,60,60s60-26.916,60-60S214.084,105.5,181,105.5z"/>
<g>
</g>
<g>
</g>
<g>
</g>
<g>
</g>
<g>
</g>
<g>
</g>
<g>
</g>
<g>
</g>
<g>
</g>
<g>
</g>
<g>
</g>
<g>
</g>
<g>
</g>
<g>
</g>
<g>
</g>
</svg>
